<svg width="138" height="71" viewBox="0 0 138 71" fill="none" xmlns="http://www.w3.org/2000/svg">
<path d="M42.8581 15.2173L42.5034 15.3114C42.4468 15.1356 42.3663 14.9839 42.2616 14.8562C42.157 14.7286 42.0251 14.6302 41.8661 14.5612C41.7091 14.49 41.5208 14.4544 41.301 14.4544C40.9474 14.4544 40.6575 14.5423 40.4315 14.7181C40.2075 14.8939 40.0956 15.1231 40.0956 15.4056C40.0956 15.6358 40.172 15.8263 40.3247 15.9769C40.4775 16.1255 40.7109 16.2385 41.0248 16.316L41.7656 16.5012C42.1465 16.5954 42.4332 16.7481 42.6258 16.9595C42.8183 17.1688 42.9146 17.4294 42.9146 17.7412C42.9146 18.007 42.8424 18.2424 42.698 18.4475C42.5536 18.6526 42.3537 18.8127 42.0984 18.9278C41.8452 19.0429 41.5501 19.1005 41.2131 19.1005C40.7632 19.1005 40.3938 18.9958 40.105 18.7865C39.8162 18.5752 39.631 18.2728 39.5494 17.8793L39.9166 17.7851C39.9857 18.099 40.1291 18.3387 40.3467 18.504C40.5665 18.6672 40.8542 18.7489 41.21 18.7489C41.6034 18.7489 41.9205 18.6557 42.1612 18.4695C42.4039 18.2832 42.5253 18.0446 42.5253 17.7537C42.5253 17.5319 42.4542 17.3446 42.3119 17.1918C42.1696 17.039 41.954 16.9271 41.6652 16.8559L40.8961 16.6676C40.5026 16.5713 40.2075 16.4175 40.0108 16.2061C39.8141 15.9926 39.7157 15.73 39.7157 15.4182C39.7157 15.1587 39.7838 14.9305 39.9198 14.7338C40.0558 14.5371 40.2431 14.3833 40.4817 14.2724C40.7203 14.1614 40.9934 14.106 41.301 14.106C41.7091 14.106 42.0419 14.2022 42.2993 14.3948C42.5567 14.5873 42.743 14.8615 42.8581 15.2173ZM48.331 19.1005C47.9334 19.1005 47.5797 18.9937 47.27 18.7803C46.9602 18.5647 46.7164 18.2686 46.5385 17.8919C46.3606 17.5152 46.2717 17.0861 46.2717 16.6048C46.2717 16.1213 46.3606 15.6923 46.5385 15.3177C46.7164 14.941 46.9602 14.6449 47.27 14.4293C47.5797 14.2138 47.9334 14.106 48.331 14.106C48.7286 14.106 49.0823 14.2138 49.3921 14.4293C49.7018 14.6449 49.9456 14.941 50.1235 15.3177C50.3014 15.6944 50.3903 16.1234 50.3903 16.6048C50.3903 17.0861 50.3014 17.5152 50.1235 17.8919C49.9456 18.2686 49.7018 18.5647 49.3921 18.7803C49.0823 18.9937 48.7286 19.1005 48.331 19.1005ZM48.331 18.7457C48.6679 18.7457 48.962 18.6505 49.2131 18.4601C49.4663 18.2696 49.662 18.0122 49.8002 17.6878C49.9404 17.3634 50.0105 17.0024 50.0105 16.6048C50.0105 16.2072 49.9404 15.8472 49.8002 15.5249C49.6599 15.2005 49.4643 14.9431 49.2131 14.7527C48.962 14.5601 48.6679 14.4638 48.331 14.4638C47.9941 14.4638 47.7 14.5601 47.4489 14.7527C47.1978 14.9431 47.0021 15.2005 46.8619 15.5249C46.7216 15.8472 46.6515 16.2072 46.6515 16.6048C46.6515 17.0024 46.7206 17.3634 46.8587 17.6878C46.9989 18.0122 47.1946 18.2696 47.4457 18.4601C47.699 18.6505 47.9941 18.7457 48.331 18.7457ZM55.8287 14.1782V14.5204H53.6909V14.1782H55.8287ZM54.3941 19V13.4279C54.3941 13.1851 54.4496 12.978 54.5605 12.8063C54.6714 12.6347 54.8168 12.5039 54.9968 12.4139C55.1789 12.324 55.3746 12.279 55.5839 12.279C55.6948 12.279 55.7889 12.2884 55.8664 12.3072C55.9459 12.324 56.015 12.3438 56.0736 12.3669L55.9606 12.7059C55.9124 12.6892 55.8601 12.6745 55.8036 12.6619C55.7492 12.6494 55.6843 12.6431 55.609 12.6431C55.3662 12.6431 55.1663 12.7174 55.0094 12.866C54.8524 13.0146 54.7739 13.2218 54.7739 13.4876L54.7708 19H54.3941ZM61.0238 14.1782V14.5204H58.9174V14.1782H61.0238ZM59.63 13.023H60.0098V17.8605C60.0098 18.0572 60.0475 18.2183 60.1229 18.3439C60.2003 18.4674 60.3007 18.5595 60.4242 18.6202C60.5498 18.6788 60.6837 18.7081 60.826 18.7081C60.8951 18.7081 60.9547 18.7028 61.005 18.6924C61.0573 18.6819 61.1065 18.6683 61.1525 18.6515L61.2467 19C61.1881 19.0209 61.1232 19.0387 61.0521 19.0534C60.9809 19.0701 60.8972 19.0785 60.8009 19.0785C60.6 19.0785 60.4096 19.0335 60.2296 18.9435C60.0517 18.8535 59.9073 18.7227 59.7964 18.5511C59.6855 18.3795 59.63 18.1723 59.63 17.9295V13.023ZM65.7943 19L64.3503 14.1782H64.7521L65.9952 18.4381H66.0298L67.276 14.1782H67.6747L68.9178 18.4349H68.9492L70.1924 14.1782H70.5942L69.1501 19H68.7232L67.4926 14.8029H67.4518L66.2213 19H65.7943ZM75.3631 19.1036C75.0848 19.1036 74.8295 19.0481 74.5972 18.9372C74.367 18.8263 74.1817 18.6641 74.0415 18.4506C73.9034 18.2372 73.8343 17.9777 73.8343 17.6721C73.8343 17.4712 73.8699 17.2944 73.9411 17.1416C74.0122 16.9888 74.1221 16.857 74.2707 16.7461C74.4193 16.6351 74.6097 16.5441 74.842 16.4729C75.0743 16.3997 75.3516 16.3432 75.6739 16.3034C75.9188 16.2741 76.1375 16.2459 76.33 16.2187C76.5225 16.1894 76.6732 16.1444 76.7821 16.0837C76.893 16.023 76.9484 15.9309 76.9484 15.8074V15.6065C76.9484 15.2549 76.8375 14.9755 76.6157 14.7684C76.3938 14.5612 76.0883 14.4576 75.699 14.4576C75.3537 14.4576 75.0628 14.534 74.8263 14.6867C74.5919 14.8374 74.4277 15.032 74.3335 15.2706L73.9725 15.1356C74.0646 14.9054 74.1974 14.7139 74.3711 14.5612C74.5469 14.4084 74.7479 14.2943 74.9739 14.219C75.202 14.1437 75.4406 14.106 75.6896 14.106C75.9052 14.106 76.1103 14.1363 76.3049 14.197C76.5016 14.2577 76.6764 14.3498 76.8291 14.4733C76.984 14.5967 77.1064 14.7547 77.1964 14.9473C77.2864 15.1377 77.3314 15.3658 77.3314 15.6316V19H76.9484V18.1304H76.9202C76.8365 18.3104 76.7214 18.4747 76.5749 18.6233C76.4305 18.7698 76.2557 18.887 76.0506 18.9749C75.8476 19.0607 75.6185 19.1036 75.3631 19.1036ZM75.4008 18.7489C75.7022 18.7489 75.969 18.6756 76.2013 18.5291C76.4357 18.3805 76.6188 18.1775 76.7507 17.9201C76.8825 17.6627 76.9484 17.3708 76.9484 17.0443V16.3348C76.9003 16.3767 76.8302 16.4143 76.7381 16.4478C76.6481 16.4792 76.5456 16.5075 76.4305 16.5326C76.3175 16.5556 76.1982 16.5765 76.0726 16.5954C75.9491 16.6121 75.8288 16.6278 75.7116 16.6425C75.36 16.6843 75.0733 16.7492 74.8514 16.8371C74.6317 16.9229 74.4706 17.0359 74.368 17.1761C74.2676 17.3163 74.2173 17.4859 74.2173 17.6847C74.2173 18.0132 74.3303 18.2728 74.5564 18.4632C74.7824 18.6536 75.0639 18.7489 75.4008 18.7489ZM81.2355 19V14.1782H81.6091V14.9316H81.6436C81.7483 14.6846 81.9251 14.4869 82.1741 14.3383C82.4232 14.1876 82.7068 14.1123 83.0249 14.1123C83.0583 14.1123 83.0918 14.1123 83.1253 14.1123C83.1588 14.1123 83.1902 14.1133 83.2195 14.1154V14.5015C83.1944 14.4994 83.164 14.4963 83.1285 14.4921C83.095 14.4858 83.0531 14.4827 83.0029 14.4827C82.735 14.4827 82.4964 14.5402 82.2872 14.6553C82.08 14.7704 81.9167 14.9295 81.7974 15.1325C81.6781 15.3334 81.6185 15.5636 81.6185 15.8231V19H81.2355Z" fill="#101D34"/>
<path d="M27.5 17V17C13.969 17 3 27.969 3 41.5V42.5C3 56.5833 14.4167 68 28.5 68H58H85.5H99.25" stroke="#101D34" stroke-width="5" stroke-linecap="round"/>
<path d="M31.9139 38.8253C31.2702 37.6844 32.0945 36.2727 33.4046 36.2727V36.2727C34.0385 36.2727 34.6205 36.6231 34.9172 37.1834L38.2111 43.4044C38.2346 43.4488 38.2807 43.4766 38.331 43.4766V43.4766C38.3812 43.4766 38.4274 43.4488 38.4509 43.4044L41.7447 37.1834C42.0414 36.6231 42.6234 36.2727 43.2574 36.2727V36.2727C44.5674 36.2727 45.3918 37.6844 44.748 38.8253L40.6914 46.0154C40.2952 46.7177 40.087 47.5103 40.087 48.3167V51.244C40.087 52.2138 39.3008 53 38.331 53V53C37.3611 53 36.5749 52.2138 36.5749 51.244V48.3167C36.5749 47.5103 36.3667 46.7177 35.9705 46.0154L31.9139 38.8253Z" fill="#F2CE47"/>
<path d="M58.4519 38.041C58.4519 37.0644 59.2436 36.2727 60.2202 36.2727V36.2727C61.1968 36.2727 61.9885 37.0644 61.9885 38.041V47.1357C61.9885 48.3554 61.6972 49.4226 61.1145 50.3374C60.5374 51.2521 59.7288 51.9654 58.6887 52.4773C57.6487 52.9837 56.4372 53.2369 55.0542 53.2369C53.6657 53.2369 52.4514 52.9837 51.4114 52.4773C50.3714 51.9654 49.5628 51.2521 48.9856 50.3374C48.4084 49.4226 48.1199 48.3554 48.1199 47.1357V38.041C48.1199 37.0644 48.9115 36.2727 49.8881 36.2727V36.2727C50.8647 36.2727 51.6564 37.0644 51.6564 38.041V46.8335C51.6564 47.4705 51.7953 48.0368 52.073 48.5323C52.3561 49.0278 52.7536 49.4171 53.2654 49.7003C53.7773 49.9834 54.3735 50.125 55.0542 50.125C55.7402 50.125 56.3365 49.9834 56.8429 49.7003C57.3547 49.4171 57.7495 49.0278 58.0272 48.5323C58.3103 48.0368 58.4519 47.4705 58.4519 46.8335V38.041Z" fill="#F2CE47"/>
<path d="M68.1812 51.7708C67.9428 52.5038 67.2596 53 66.4888 53V53C65.266 53 64.4074 51.7953 64.8065 50.6395L69.0226 38.4263C69.4675 37.1375 70.6809 36.2727 72.0443 36.2727V36.2727C73.4082 36.2727 74.6219 37.1381 75.0664 38.4276L79.2764 50.64C79.6748 51.7958 78.8162 53 77.5936 53V53C76.8224 53 76.1389 52.5033 75.9007 51.7698L72.1304 40.1573C72.1183 40.1203 72.0838 40.0952 72.0448 40.0952V40.0952C72.0059 40.0952 71.9713 40.1203 71.9593 40.1573L68.1812 51.7708ZM67.5445 47.8054C67.5445 47.0431 68.1625 46.4251 68.9248 46.4251H75.1159C75.8782 46.4251 76.4962 47.0431 76.4962 47.8054V47.8054C76.4962 48.5677 75.8782 49.1857 75.1159 49.1857H68.9248C68.1625 49.1857 67.5445 48.5677 67.5445 47.8054V47.8054Z" fill="#F2CE47"/>
<path d="M94.3343 36.2727C95.3063 36.2727 96.0944 37.0608 96.0944 38.0329V50.9962C96.0944 52.1029 95.1972 53 94.0905 53V53C93.4325 53 92.8163 52.6769 92.4422 52.1356L85.7863 42.5066C85.7713 42.4849 85.7466 42.472 85.7202 42.472V42.472C85.6758 42.472 85.6398 42.5079 85.6398 42.5523V51.2317C85.6398 52.2083 84.8481 53 83.8715 53V53C82.8949 53 82.1033 52.2083 82.1033 51.2317V38.3059C82.1033 37.183 83.0135 36.2727 84.1364 36.2727V36.2727C84.8065 36.2727 85.4336 36.6029 85.8127 37.1554L92.3984 46.7508C92.4164 46.777 92.4461 46.7926 92.4778 46.7926V46.7926C92.531 46.7926 92.5741 46.7495 92.5741 46.6963V38.0329C92.5741 37.0608 93.3622 36.2727 94.3343 36.2727V36.2727Z" fill="#F2CE47"/>
<path d="M88.8304 19.3681C88.395 19.3678 88.0162 19.2597 87.694 19.0438C87.3718 18.8279 87.1229 18.5326 86.9473 18.1577C86.7718 17.7828 86.6842 17.3557 86.6846 16.8763C86.6849 16.3948 86.7732 15.9658 86.9494 15.5891C87.1276 15.2124 87.3717 14.9153 87.6817 14.6979C87.9917 14.4804 88.3456 14.3718 88.7433 14.3721C89.0134 14.3724 89.2687 14.427 89.5094 14.536C89.7521 14.643 89.9655 14.7981 90.1496 15.0013C90.3358 15.2045 90.4811 15.4495 90.5855 15.7364C90.692 16.0233 90.7452 16.3457 90.7449 16.7037L90.7447 16.9423L86.9263 16.9393L86.9266 16.5908L90.3619 16.5935C90.3621 16.2439 90.2912 15.9288 90.1491 15.6481C90.007 15.3675 89.8135 15.1444 89.5687 14.9788C89.3239 14.8133 89.0487 14.7304 88.743 14.7301C88.4228 14.7299 88.1369 14.8196 87.8856 14.9995C87.6363 15.1772 87.4383 15.4178 87.2915 15.7212C87.1468 16.0247 87.0712 16.3637 87.0646 16.7385L87.0645 16.8955C87.0642 17.2974 87.134 17.6586 87.274 17.979C87.4161 18.2973 87.619 18.5497 87.8826 18.7362C88.1462 18.9206 88.4623 19.013 88.8307 19.0133C89.0945 19.0135 89.3196 18.9697 89.5059 18.882C89.6944 18.7921 89.8484 18.6833 89.9678 18.5557C90.0872 18.4281 90.1773 18.3047 90.2381 18.1854L90.5866 18.327C90.5132 18.4881 90.399 18.6492 90.2439 18.8103C90.091 18.9693 89.8962 19.1021 89.6595 19.2086C89.425 19.3152 89.1486 19.3684 88.8304 19.3681Z" fill="#101D34"/>
<path d="M96.6666 17.1536L95.7217 20.135L95.3565 20.0192L96.8137 15.4214L97.1699 15.5343L96.9394 16.2617L96.9753 16.2731C97.1583 16.0697 97.3914 15.9339 97.6744 15.8654C97.9574 15.797 98.2625 15.8147 98.5898 15.9184C98.8991 16.0164 99.1496 16.1683 99.3414 16.374C99.5351 16.5803 99.6593 16.8261 99.7138 17.1113C99.771 17.3952 99.7464 17.7047 99.6402 18.04L98.6792 21.0723L98.314 20.9565L99.2703 17.9392C99.3942 17.5481 99.3771 17.1968 99.2189 16.8853C99.0633 16.5724 98.7949 16.3556 98.4137 16.2348C98.1583 16.1539 97.9131 16.1377 97.6781 16.1862C97.4432 16.2347 97.2369 16.3417 97.0592 16.5072C96.8822 16.6707 96.7514 16.8861 96.6666 17.1536Z" fill="#101D34"/>
<path d="M103.439 25.8074C103.196 25.632 103.001 25.4422 102.855 25.238C102.707 25.0354 102.607 24.8265 102.556 24.6114C102.506 24.3974 102.504 24.1841 102.55 23.9714L102.919 24.0063C102.886 24.1736 102.888 24.345 102.924 24.5207C102.959 24.6963 103.036 24.8692 103.153 25.0392C103.272 25.2105 103.436 25.3715 103.645 25.5223C104.021 25.7945 104.39 25.9122 104.75 25.8752C105.11 25.8412 105.435 25.624 105.724 25.2236L106.427 24.2514L106.396 24.2293C106.214 24.356 106.017 24.4433 105.804 24.491C105.594 24.5383 105.379 24.5385 105.157 24.4918C104.935 24.4451 104.717 24.3445 104.503 24.19C104.194 23.9668 103.98 23.6908 103.862 23.3621C103.743 23.0334 103.722 22.6777 103.8 22.2948C103.879 21.9102 104.06 21.522 104.343 21.1301C104.627 20.7381 104.941 20.4371 105.287 20.2271C105.635 20.0166 105.988 19.9102 106.346 19.9081C106.705 19.9042 107.043 20.0163 107.358 20.2444C107.584 20.4075 107.748 20.5918 107.85 20.7972C107.955 21.0022 108.012 21.2156 108.023 21.4374C108.033 21.6591 108.008 21.8761 107.948 22.0882L107.983 22.1139L108.614 21.241L108.914 21.458L106.023 25.4588C105.788 25.7846 105.528 26.0086 105.243 26.1309C104.96 26.2545 104.664 26.2863 104.356 26.2264C104.05 26.1678 103.744 26.0281 103.439 25.8074ZM104.739 23.9226C105 24.1114 105.273 24.2077 105.557 24.2115C105.844 24.2148 106.127 24.1302 106.407 23.9578C106.689 23.7848 106.953 23.5287 107.198 23.1894C107.436 22.8602 107.599 22.5296 107.686 22.1977C107.774 21.8658 107.776 21.5565 107.694 21.2698C107.612 20.9832 107.439 20.7442 107.174 20.5529C106.904 20.358 106.619 20.2682 106.319 20.2835C106.02 20.2972 105.725 20.3971 105.436 20.5831C105.148 20.7703 104.887 21.026 104.653 21.3501C104.418 21.6758 104.261 21.9994 104.184 22.3207C104.108 22.6402 104.114 22.9391 104.203 23.2173C104.292 23.4938 104.471 23.7289 104.739 23.9226Z" fill="#101D34"/>
<path d="M110.058 29.3552L113.817 26.3331L114.055 26.6292L110.296 29.6513L110.058 29.3552ZM114.602 25.9472C114.55 25.8819 114.527 25.8065 114.533 25.7208C114.541 25.6367 114.577 25.5685 114.643 25.516C114.708 25.4635 114.782 25.4426 114.866 25.4532C114.95 25.4638 115.019 25.5025 115.072 25.5694C115.125 25.6347 115.147 25.7093 115.14 25.7934C115.133 25.879 115.097 25.9481 115.032 26.0006C114.967 26.053 114.892 26.074 114.809 26.0634C114.725 26.0528 114.656 26.0141 114.602 25.9472Z" fill="#101D34"/>
<path d="M116.19 33.0157L113.337 34.2969L113.18 33.9474L117.58 31.9717L117.733 32.3126L117.037 32.6251L117.053 32.6595C117.326 32.6606 117.583 32.7439 117.822 32.9094C118.062 33.0749 118.252 33.3143 118.393 33.6275C118.526 33.9235 118.579 34.2115 118.554 34.4915C118.529 34.7735 118.428 35.0298 118.252 35.2604C118.078 35.4921 117.831 35.68 117.51 35.8241L114.608 37.1271L114.451 36.7776L117.339 35.481C117.713 35.313 117.964 35.0662 118.091 34.7407C118.22 34.4163 118.203 34.0717 118.039 33.7069C117.93 33.4625 117.778 33.2688 117.586 33.1258C117.393 32.9829 117.176 32.9003 116.934 32.878C116.694 32.8549 116.446 32.9008 116.19 33.0157Z" fill="#101D34"/>
<path d="M116.063 43.5504C116.043 43.1155 116.134 42.732 116.334 42.4C116.535 42.068 116.818 41.8056 117.184 41.6127C117.551 41.4197 117.973 41.3122 118.452 41.2902C118.933 41.268 119.366 41.3361 119.75 41.4944C120.135 41.6548 120.443 41.8847 120.675 42.1841C120.907 42.4836 121.032 42.832 121.05 43.2293C121.062 43.4991 121.02 43.7567 120.922 44.0022C120.827 44.2497 120.682 44.4702 120.487 44.6635C120.293 44.859 120.055 45.0156 119.773 45.1334C119.492 45.2533 119.172 45.3214 118.815 45.3379L118.576 45.3489L118.4 41.5346L118.749 41.5185L118.907 44.9502C119.256 44.9341 119.567 44.8485 119.841 44.6933C120.115 44.5382 120.329 44.3345 120.483 44.0822C120.636 43.8299 120.706 43.5511 120.692 43.2458C120.678 42.9259 120.574 42.6446 120.383 42.4019C120.194 42.1613 119.944 41.9747 119.634 41.8423C119.324 41.712 118.982 41.6524 118.608 41.6634L118.451 41.6706C118.049 41.6891 117.692 41.7758 117.378 41.9306C117.067 42.0875 116.824 42.302 116.65 42.574C116.478 42.846 116.401 43.166 116.418 43.5341C116.43 43.7976 116.484 44.0203 116.581 44.2024C116.679 44.3865 116.795 44.5352 116.928 44.6485C117.061 44.7618 117.189 44.846 117.311 44.9012L117.186 45.2559C117.021 45.1901 116.855 45.0836 116.687 44.9362C116.521 44.7909 116.379 44.6025 116.262 44.3712C116.144 44.1419 116.078 43.8683 116.063 43.5504Z" fill="#101D34"/>
<path d="M115.593 52.8695C115.593 52.4341 115.7 52.055 115.915 51.7322C116.13 51.4094 116.425 51.1598 116.799 50.9833C117.174 50.8068 117.6 50.7181 118.08 50.7173C118.561 50.7165 118.991 50.8036 119.368 50.9788C119.745 51.1561 120.043 51.3995 120.261 51.7089C120.479 52.0184 120.589 52.372 120.589 52.7697C120.59 53.0397 120.536 53.2952 120.427 53.5362C120.321 53.7792 120.166 53.993 119.964 54.1776C119.761 54.3642 119.516 54.5102 119.23 54.6153C118.943 54.7226 118.621 54.7765 118.263 54.7772L118.024 54.7776L118.017 50.9592L118.366 50.9586L118.372 54.3939C118.722 54.3933 119.037 54.3215 119.317 54.1787C119.597 54.0359 119.82 53.8418 119.985 53.5966C120.15 53.3514 120.232 53.076 120.231 52.7703C120.231 52.45 120.14 52.1644 119.96 51.9135C119.781 51.6647 119.54 51.4673 119.236 51.3213C118.933 51.1774 118.593 51.1026 118.219 51.097L118.062 51.0973C117.66 51.098 117.299 51.1687 116.979 51.3096C116.661 51.4525 116.409 51.656 116.223 51.9201C116.039 52.1842 115.948 52.5004 115.948 52.8689C115.949 53.1326 115.993 53.3576 116.081 53.5438C116.172 53.732 116.281 53.8857 116.409 54.0048C116.537 54.1239 116.66 54.2137 116.78 54.2742L116.639 54.623C116.478 54.55 116.316 54.4362 116.155 54.2816C115.996 54.129 115.862 53.9346 115.755 53.6982C115.648 53.4639 115.594 53.1877 115.593 52.8695Z" fill="#101D34"/>
<path d="M115.899 59.8836L120.721 59.9661L120.715 60.3397L119.961 60.3268L119.961 60.3613C120.206 60.4702 120.401 60.6505 120.545 60.9021C120.692 61.1537 120.762 61.4386 120.757 61.7568C120.756 61.7903 120.755 61.8238 120.755 61.8573C120.754 61.8908 120.753 61.9221 120.75 61.9514L120.364 61.9448C120.367 61.9197 120.37 61.8894 120.375 61.8539C120.382 61.8205 120.386 61.7787 120.387 61.7285C120.391 61.4606 120.338 61.221 120.226 61.0097C120.115 60.8005 119.958 60.6345 119.757 60.5117C119.558 60.389 119.329 60.3254 119.07 60.321L115.892 60.2666L115.899 59.8836Z" fill="#101D34"/>
</svg>
